<svg height="512pt" viewBox="-134 0 512 512" width="512pt" xmlns="http://www.w3.org/2000/svg"><path d="m177.984375 502h-121.496094c-6.257812 0-11.753906-4.164062-13.441406-10.195312l-32.511719-116.082032c-2.496094-8.902344 4.195313-17.722656 13.4375-17.722656h186.523438c9.246094 0 15.933594 8.820312 13.441406 17.722656l-32.511719 116.082032c-1.6875 6.03125-7.183593 10.195312-13.441406 10.195312zm0 0" fill="#ffcb7c"/><path d="m210.496094 358h-186.523438c-9.242187 0-15.933594 8.820312-13.4375 17.722656l6.238282 22.277344h200.925781l6.238281-22.277344c2.492188-8.902344-4.195312-17.722656-13.441406-17.722656zm0 0" fill="#ffedd1"/><path d="m207.734375 267.628906h-30.121094c-33.277343 0-60.25 26.972656-60.25 60.25v30.121094h30.121094c33.277344 0 60.25-26.976562 60.25-60.25zm0 0" fill="#d8ec84"/><path d="m26.988281 267.628906h30.125c33.273438 0 60.25 26.972656 60.25 60.25v30.121094h-30.125c-33.273437 0-60.25-26.976562-60.25-60.25zm0 0" fill="#d8ec84"/><path d="m117.234375 30c-54.121094 0-98 43.875-98 98s43.878906 98 98 98c54.125 0 98-43.875 98-98h-98zm0 0" fill="#b0e7f8"/><path d="m186.472656 197.355469c17.769532-17.742188 28.765625-42.265625 28.765625-69.355469h-97.632812l-.242188.242188zm0 0" fill="#ffcb7c"/><path d="m117.238281 10v118h118c-.003906-65.171875-52.832031-118-118-118zm0 0" fill="#f5737f"/><path d="m117.234375 0c-5.519531 0-10 4.476562-10 10v10.46875c-37.09375 3.378906-69.699219 25.425781-86.632813 59.253906-2.46875 4.9375-.46875 10.945313 4.46875 13.417969 1.4375.71875 2.964844 1.058594 4.46875 1.058594 3.667969 0 7.195313-2.023438 8.949219-5.527344 13.515625-27.003906 39.289063-44.796875 68.746094-48.105469v87.433594c0 2.761719 1.121094 5.261719 2.929687 7.070312l61.792969 61.792969c-15.03125 11.972657-34.054687 19.136719-54.722656 19.136719-33.546875 0-63.722656-18.652344-78.746094-48.675781-2.472656-4.9375-8.480469-6.9375-13.417969-4.46875-4.941406 2.472656-6.941406 8.480469-4.46875 13.417969 16.929688 33.832031 49.542969 55.878906 86.644532 59.257812l.042968 43.242188c-12.761718-13.035157-30.535156-21.148438-50.175781-21.148438h-30.125c-5.519531 0-10 4.480469-10 10v30.125c0 19.679688 8.144531 37.484375 21.226563 50.25h-14.242188c-7.5625 0-14.519531 3.453125-19.089844 9.480469-4.566406 6.023437-6.019531 13.65625-3.980468 20.9375l32.515625 116.085937c2.886719 10.300782 12.371093 17.496094 23.070312 17.496094h121.492188c10.699219 0 20.1875-7.195312 23.074219-17.496094l32.511718-116.082031c2.039063-7.28125.589844-14.914063-3.980468-20.941406-4.570313-6.023438-11.527344-9.480469-19.089844-9.480469h-13.988282c13.082032-12.765625 21.226563-30.570312 21.226563-50.25v-30.121094c0-5.523437-4.476563-10-10-10h-30.121094c-19.71875 0-37.554687 8.175782-50.324219 21.304688l-.042968-43.402344c51.582031-4.761719 92.765625-45.945312 97.523437-97.53125h10.464844c5.523437 0 10-4.476562 10-10 0-70.578125-57.417969-128-128-128zm10 20.460938c51.59375 4.753906 92.785156 45.945312 97.542969 97.539062h-97.542969zm-90.246094 277.289062v-20.121094h20.125c27.351563 0 49.652344 21.96875 50.222657 49.183594l.007812 7.027344-18.097656-18.097656c-3.90625-3.902344-10.234375-3.902344-14.140625 0-3.90625 3.90625-3.90625 10.238281 0 14.144531l18.113281 18.113281h-5.976562c-27.710938 0-50.253907-22.542969-50.253907-50.25zm144.808594 191.359375c-.480469 1.703125-2.046875 2.890625-3.816406 2.890625h-121.492188c-1.769531 0-3.335937-1.1875-3.8125-2.890625l-22.714843-81.109375h174.550781zm28.699219-121.109375c1.710937 0 2.710937.980469 3.152344 1.566406.445312.585938 1.121093 1.8125.660156 3.457032l-4.195313 14.976562h-185.757812l-4.191407-14.976562c-.460937-1.644532.214844-2.871094.65625-3.457032.445313-.585937 1.445313-1.566406 3.152344-1.566406zm-32.882813-90.371094h20.121094v20.121094c0 27.707031-22.539063 50.25-50.25 50.25h-5.980469l18.117188-18.113281c3.902344-3.90625 3.902344-10.238281 0-14.144531-3.90625-3.902344-10.238282-3.902344-14.144532 0l-18.113281 18.113281v-5.976563c0-27.710937 22.542969-50.25 50.25-50.25zm8.488281-94.90625-44.722656-44.722656h63.285156c-1.90625 16.78125-8.550781 32.148438-18.5625 44.722656zm0 0"/><path d="m19.234375 138c2.632813 0 5.210937-1.070312 7.070313-2.929688 1.859374-1.859374 2.929687-4.441406 2.929687-7.070312s-1.070313-5.210938-2.929687-7.070312c-1.859376-1.859376-4.4375-2.929688-7.070313-2.929688-2.628906 0-5.210937 1.070312-7.070313 2.929688-1.859374 1.859374-2.929687 4.441406-2.929687 7.070312s1.070313 5.210938 2.929687 7.070312c1.863282 1.859376 4.441407 2.929688 7.070313 2.929688zm0 0"/></svg>